<svg t="1643254492894" class="icon" viewBox="0 0 1024 1024" version="1.1" xmlns="http://www.w3.org/2000/svg" p-id="2302" width="200" height="200">
  <path d="M634.210572 226.496026m-210.118577 0a210.118577 210.118577 0 1 0 420.237153 0 210.118577 210.118577 0 1 0-420.237153 0Z" fill="#CCFFF3" p-id="2303"></path>
  <path d="M634.210572 452.992051c-124.890332 0-226.496026-101.605694-226.496026-226.496025S509.32024 0 634.210572 0c124.890332 0 226.496026 101.605694 226.496025 226.496026s-101.605694 226.496026-226.496025 226.496025z m0-420.237153c-106.8301 0-193.741128 86.915122-193.741128 193.741128s86.915122 193.741128 193.741128 193.741127 193.741128-86.915122 193.741127-193.741127S741.040672 32.754898 634.210572 32.754898z" fill="#6E6E96" p-id="2304"></path>
  <path d="M725.437057 37.160432c31.42423 33.782583 50.680016 79.049852 50.680016 128.829108 0 104.508597-84.712355 189.220952-189.208668 189.220952-66.328669 0-124.632387-34.130604-158.423159-85.760512 19.828996 95.447773 104.402143 167.181 205.725326 167.181 116.050604 0 210.118577-94.08435 210.118576-210.122671 0-83.36531-48.538665-155.385142-118.892091-189.347877z" fill="#6E6E96" opacity=".2" p-id="2305"></path>
  <path d="M446.954914 246.582967m-210.122671 0a210.122671 210.122671 0 1 0 420.245342 0 210.122671 210.122671 0 1 0-420.245342 0Z" fill="#FFEF9E" p-id="2306"></path>
  <path d="M446.954914 473.083087c-124.890332 0-226.496026-101.605694-226.496026-226.496026 0-124.894426 101.605694-226.50012 226.496026-226.50012 124.894426 0 226.50012 101.605694 226.50012 226.50012 0 124.890332-101.605694 226.496026-226.50012 226.496026z m0-420.245342c-106.8301 0-193.741128 86.915122-193.741128 193.745222s86.915122 193.741128 193.741128 193.741127c106.834194 0 193.745222-86.915122 193.745222-193.741127 0-106.8301-86.911028-193.745222-193.745222-193.745222z" fill="#6E6E96" p-id="2307"></path>
  <path d="M538.181399 57.243279c31.444702 33.778489 50.68411 79.049852 50.684111 128.833202 0 104.504502-84.720544 189.220952-189.216857 189.220952-66.316385 0-124.624198-34.134698-158.410876-85.764606 19.828996 95.455962 104.398049 167.181 205.72942 167.180999 116.050604 0 210.118577-94.080256 210.118577-210.118576-0.004094-83.369404-48.555042-155.385142-118.904375-189.351971z" fill="#6E6E96" opacity=".15" p-id="2308"></path>
  <path d="M524.514418 1024a8.188725 8.188725 0 0 1-7.660552-11.083439l170.255866-451.542647a8.188725 8.188725 0 1 1 15.321104 5.78124l-170.255866 451.542647a8.188725 8.188725 0 0 1-7.660552 5.302199z" fill="#6E6E96" p-id="2309"></path>
  <path d="M969.080272 357.24539c0 116.058792-94.096633 210.122671-210.126765 210.122671-116.054698 0-210.126765-94.067973-210.126766-210.122671 0-116.050604 94.080256-210.118577 210.126766-210.118577 116.034226-0.004094 210.126765 94.072067 210.126765 210.118577z" fill="#FFC2ED" p-id="2310"></path>
  <path d="M758.953507 583.74551c-124.894426 0-226.504214-101.605694-226.504215-226.50012 0-124.890332 101.609788-226.496026 226.504215-226.496026s226.504214 101.605694 226.504214 226.496026c0 124.894426-101.609788 226.50012-226.504214 226.50012z m0-420.245342c-106.834194 0-193.749316 86.915122-193.749317 193.741127 0 106.8301 86.919216 193.745222 193.749317 193.745222s193.749316-86.915122 193.749316-193.745222c0-106.826006-86.915122-193.741128-193.749316-193.741127z" fill="#6E6E96" p-id="2311"></path>
  <path d="M850.179992 167.909796c31.428325 33.782583 50.68411 79.049852 50.68411 128.829108 0 104.500408-84.724638 189.225046-189.225046 189.225046-66.316385 0-124.624198-34.138792-158.41497-85.776889 19.816713 95.451867 104.393954 167.185094 205.729421 167.185094 116.030132 0 210.126765-94.067973 210.126765-210.122671 0-83.353027-48.542759-155.376953-118.90028-189.339688z" fill="#6E6E96" opacity=".2" p-id="2312"></path>
  <path d="M727.046142 592.675314m-210.13086 0a210.13086 210.13086 0 1 0 420.261719 0 210.13086 210.13086 0 1 0-420.261719 0Z" fill="#FFD761" p-id="2313"></path>
  <path d="M727.046142 819.183623c-124.898521 0-226.508309-101.609788-226.508309-226.508309 0-124.894426 101.609788-226.504214 226.508309-226.504214s226.508309 101.609788 226.508308 226.504214c0 124.898521-101.609788 226.508309-226.508308 226.508309z m0-420.26172c-106.838289 0-193.753411 86.915122-193.753411 193.749317 0 106.838289 86.919216 193.753411 193.753411 193.75341s193.753411-86.919216 193.75341-193.75341c0-106.834194-86.915122-193.749316-193.75341-193.749317z" fill="#6E6E96" p-id="2314"></path>
  <path d="M818.272627 403.335626c31.432419 33.782583 50.68411 79.049852 50.68411 128.833202 0 104.504502-84.724638 189.233235-189.216857 189.233235-66.328669 0-124.624198-34.146981-158.41497-85.7687 19.828996 95.447773 104.38986 167.168717 205.721232 167.168716 116.042415 0 210.126765-94.08435 210.126765-210.118576 0-83.36531-48.542759-155.385142-118.90028-189.347877z" fill="#6E6E96" opacity=".14" p-id="2315"></path>
  <path d="M687.445347 474.127715a37.250508 50.1109 54.184 1 0-81.269901 58.648208 37.250508 50.1109 54.184 1 0 81.269901-58.648208Z" fill="#FFFFFF" p-id="2316"></path>
  <path d="M350.790628 564.072099m-210.126766 0a210.126765 210.126765 0 1 0 420.253531 0 210.126765 210.126765 0 1 0-420.253531 0Z" fill="#B4D5F0" p-id="2317"></path>
  <path d="M350.790628 790.576313c-124.894426 0-226.504214-101.605694-226.504215-226.500119s101.609788-226.504214 226.504215-226.504215c124.894426 0 226.50012 101.609788 226.50012 226.504215 0.004094 124.890332-101.605694 226.50012-226.50012 226.500119z m0-420.25353c-106.834194 0-193.749316 86.915122-193.749317 193.749316 0 106.834194 86.915122 193.745222 193.749317 193.745222 106.8301 0 193.745222-86.915122 193.745222-193.745222 0.004094-106.834194-86.911028-193.749316-193.745222-193.749316z" fill="#6E6E96" p-id="2318"></path>
  <path d="M442.025302 374.732411c31.428325 33.782583 50.675922 79.045758 50.675922 128.829108 0 104.492219-84.712355 189.208669-189.220952 189.208669-66.308197 0-124.61601-34.118321-158.402687-85.752323 19.820808 95.443679 104.385766 167.176905 205.721231 167.176905 116.046509 0 210.122671-94.080256 210.122671-210.122671-0.004094-83.357121-48.546853-155.372859-118.896185-189.339688z" fill="#6E6E96" opacity=".15" p-id="2319"></path>
  <path d="M303.952699 444.030832a37.246413 50.1109 54.184 1 0-81.269901 58.648208 37.246413 50.1109 54.184 1 0 81.269901-58.648208Z" fill="#FFFFFF" p-id="2320"></path>
  <path d="M511.752291 249.141943c-124.931275 0-226.20942 93.028005-226.20942 207.780696 0 20.656058 3.328717 40.591507 9.437505 59.425574l-29.917505-37.934267-106.346965 41.971308-18.047949 43.682751s88.331771 41.201567 180.577753 4.835442c40.214826 57.599488 110.478177 95.803982 190.506581 95.803982 124.93537 0 226.20942-93.032099 226.20942-207.78479S636.683567 249.141943 511.752291 249.141943z" fill="#6E6E96" opacity=".14" p-id="2321"></path>
  <path d="M227.25553 362.256889m-172.331708 0a172.331707 172.331707 0 1 0 344.663415 0 172.331707 172.331707 0 1 0-344.663415 0Z" fill="#FAFAFA" p-id="2322"></path>
  <path d="M227.25553 550.966046c-104.054122 0-188.709156-84.655034-188.709157-188.709157s84.655034-188.709156 188.709157-188.709156c104.058217 0 188.713251 84.655034 188.71325 188.709156s-84.659128 188.709156-188.71325 188.709157z m0-344.663415c-85.99389 0-155.954258 69.960368-155.954259 155.954258s69.960368 155.954258 155.954259 155.954259c85.99389 0 155.958353-69.960368 155.958352-155.954259s-69.964462-155.954258-155.958352-155.954258z" fill="#6E6E96" p-id="2323"></path>
  <path d="M302.08 206.970012c25.778105 27.714738 41.557777 64.830132 41.557777 105.663207 0 85.711379-69.481327 155.184518-155.180424 155.184518-54.393603 0-102.207565-27.984966-129.926397-70.341144 16.262807 78.292395 85.617209 137.120192 168.724574 137.120192 95.177545 0 172.335802-77.162351 172.335801-172.339896 0-68.367661-39.80539-127.428836-97.511331-155.286877z" fill="#6E6E96" opacity=".15" p-id="2324"></path>
  <path d="M500.415002 427.660232m-189.225046 0a189.225046 189.225046 0 1 0 378.450092 0 189.225046 189.225046 0 1 0-378.450092 0Z" fill="#FFF9E6" p-id="2325"></path>
  <path d="M500.415002 633.262727c-113.368796 0-205.606589-92.229604-205.606589-205.602495 0-113.368796 92.233699-205.602495 205.606589-205.602495s205.602495 92.233699 205.602495 205.602495-92.229604 205.602495-205.602495 205.602495z m0-378.450092c-95.308565 0-172.851691 77.539032-172.851691 172.847597 0 95.308565 77.539032 172.847597 172.851691 172.847597s172.847597-77.539032 172.847597-172.847597c0-95.308565-77.534938-172.847597-172.847597-172.847597z" fill="#6E6E96" p-id="2326"></path>
  <path d="M582.576569 257.158705c28.292043 30.425206 45.635762 71.180488 45.635762 116.013754 0 94.100728-76.298441 170.395074-170.395074 170.395074-59.720368 0-112.222375-30.744566-142.659864-77.227861 17.851419 85.961136 94.010652 150.537417 185.253515 150.537417 104.508597 0 189.233235-84.704166 189.233234-189.212763-0.004094-75.074226-43.727789-139.92483-107.067573-170.505621z" fill="#6E6E96" opacity=".15" p-id="2327"></path>
  <path d="M206.571881 257.053113a30.896058 41.565966 54.184 1 0-67.411719 48.647488 30.896058 41.565966 54.184 1 0 67.411719-48.647488Z" fill="#FFFFFF" p-id="2328"></path>
  <path d="M462.964526 316.482219a30.543942 41.086925 54.184 1 0-66.634811 48.086834 30.543942 41.086925 54.184 1 0 66.634811-48.086834Z" fill="#FFFFFF" p-id="2329"></path>
  <path d="M742.705548 215.970115a37.250508 50.1109 54.188 1 0-81.273995 58.642534 37.250508 50.1109 54.188 1 0 81.273995-58.642534Z" fill="#FFFFFF" opacity=".6" p-id="2330"></path>
  <path d="M419.578263 101.326919a37.250508 50.106805 54.184 1 0-81.26326 58.643416 37.250508 50.106805 54.184 1 0 81.26326-58.643416Z" fill="#FFFFFF" p-id="2331"></path>
  <path d="M524.514418 1023.995906a8.188725 8.188725 0 0 1-8.188724-8.188725v-400.461383a8.188725 8.188725 0 0 1 16.377449 0v400.461383a8.188725 8.188725 0 0 1-8.188725 8.188725z" fill="#6E6E96" p-id="2332"></path>
  <path d="M524.518513 1023.995906a8.18463 8.18463 0 0 1-7.373947-4.622535L279.143383 527.705974a8.188725 8.188725 0 1 1 14.743798-7.132379l237.997089 491.667397a8.188725 8.188725 0 0 1-7.365757 11.754914z" fill="#6E6E96" p-id="2333"></path>
  <path d="M524.50623 1023.995906a8.180536 8.180536 0 0 1-7.079153-12.283087l130.393155-225.714003a8.172347 8.172347 0 0 1 11.181703-2.992978 8.180536 8.180536 0 0 1 2.992979 11.181703l-130.393155 225.714002c-1.514914 2.628581-4.262231 4.094362-7.095529 4.094363z" fill="#6E6E96" p-id="2334"></path>
  <path d="M524.510324 1024a8.196913 8.196913 0 0 1-7.828421-5.805806l-80.34367-263.472211a8.188725 8.188725 0 1 1 15.669124-4.774026l80.343671 263.472211a8.188725 8.188725 0 0 1-7.840704 10.579832z" fill="#6E6E96" p-id="2335"></path>
</svg>